<?xml version="1.0" encoding="iso-8859-1"?>
<!-- Generator: Adobe Illustrator 19.0.0, SVG Export Plug-In . SVG Version: 6.00 Build 0)  -->
<svg version="1.1" id="Capa_1" xmlns="http://www.w3.org/2000/svg" xmlns:xlink="http://www.w3.org/1999/xlink" x="0px" y="0px"
	 viewBox="0 0 509.357 509.357" style="enable-background:new 0 0 509.357 509.357;" xml:space="preserve">
<g>
	<g>
		<path d="M502.808,34.649c-1.281-1.521-3.115-2.471-5.097-2.64l-110.853-9.468L384.85,6.565c-0.517-4.11-4.277-7.023-8.377-6.506
			L273.64,12.988c-0.405-0.105-0.82-0.185-1.251-0.222L131.046,0.693c-4.07-0.358-7.765,2.772-8.111,6.834l-2.107,24.672
			L11.347,45.963c-4.051,0.509-7.015,4.323-6.506,8.377l55.883,444.501c0.254,2.027-0.181,3.975,0.648,5.936
			c1.162,2.747,3.928,4.58,6.911,4.58h368c4.143,0,7.5-3.357,7.5-7.5v-9.768l14.526,1.241c4.07,0.353,7.765-2.77,8.111-6.834
			l38.125-446.375C504.715,38.139,504.091,36.171,502.808,34.649z M374.735,46.357H128.462l242.441-30.479L374.735,46.357z
			 M137.242,16.277l65.639,5.606l-66.835,8.403L137.242,16.277z M20.66,59.91l40.123-5.044v324.19L20.66,59.91z M452.113,477.746
			l-8.33-0.711V257.857c0-4.143-3.357-7.5-7.5-7.5s-7.5,3.357-7.5,7.5v236.5h-353v-433h353v161.5c0,4.143,3.357,7.5,7.5,7.5
			s7.5-3.357,7.5-7.5v-169c0-4.143-3.357-7.5-7.5-7.5h-46.43l-1.081-8.598l100.189,8.558L452.113,477.746z"/>
		<path d="M396.283,86.357h-40c-2.508,0-4.85,1.253-6.24,3.34l-16.976,25.464c-18.272-13.089-40.643-20.804-64.784-20.804
			c-4.143,0-7.5,3.357-7.5,7.5v104c0,4.143,3.357,7.5,7.5,7.5h104c4.143,0,7.5-3.357,7.5-7.5c0-31.931-13.496-60.766-35.078-81.112
			l15.592-23.388h35.986c4.143,0,7.5-3.357,7.5-7.5S400.426,86.357,396.283,86.357z M364.495,198.357h-88.712v-88.712
			c18.189,1.405,34.969,7.891,48.952,18.013l-6.692,10.039c-2.09,3.134-1.477,7.474,1.41,9.899c3.38,2.839,8.624,2.09,11.07-1.578
			l5.727-8.591C352.197,153.267,362.661,174.62,364.495,198.357z"/>
		<path d="M396.283,334.357H328.44l-11.954-19.126c19.365-20.066,31.297-47.352,31.297-77.374c0-4.143-3.357-7.5-7.5-7.5h-96.5
			v-96.5c0-4.143-3.358-7.5-7.5-7.5c-61.481,0-111.5,50.019-111.5,111.5s50.019,111.5,111.5,111.5
			c25.988,0,49.926-8.938,68.906-23.899l12.734,20.374c1.371,2.193,3.774,3.525,6.36,3.525h72c4.143,0,7.5-3.357,7.5-7.5
			S400.426,334.357,396.283,334.357z M236.283,334.357c-53.21,0-96.5-43.29-96.5-96.5c0-50.687,39.281-92.372,89-96.212v96.212
			c0,4.143,3.358,7.5,7.5,7.5h96.212c-1.675,21.688-10.553,41.389-24.236,56.71l-17.615-28.185
			c-2.195-3.515-6.824-4.581-10.335-2.386c-3.513,2.195-4.581,6.823-2.386,10.335l19.264,30.822
			C280.564,326.214,259.357,334.357,236.283,334.357z"/>
		<path d="M108.283,389.357h64c4.142,0,7.5-3.357,7.5-7.5s-3.358-7.5-7.5-7.5h-64c-4.142,0-7.5,3.357-7.5,7.5
			S104.141,389.357,108.283,389.357z"/>
		<path d="M268.283,374.357h-64c-4.142,0-7.5,3.357-7.5,7.5s3.358,7.5,7.5,7.5h64c4.143,0,7.5-3.357,7.5-7.5
			S272.426,374.357,268.283,374.357z"/>
		<path d="M108.283,429.357h104c4.142,0,7.5-3.357,7.5-7.5s-3.358-7.5-7.5-7.5h-104c-4.142,0-7.5,3.357-7.5,7.5
			S104.141,429.357,108.283,429.357z"/>
		<path d="M268.283,414.357h-24c-4.142,0-7.5,3.357-7.5,7.5s3.358,7.5,7.5,7.5h24c4.143,0,7.5-3.357,7.5-7.5
			S272.426,414.357,268.283,414.357z"/>
		<path d="M140.283,454.357h-32c-4.142,0-7.5,3.357-7.5,7.5s3.358,7.5,7.5,7.5h32c4.142,0,7.5-3.357,7.5-7.5
			S144.425,454.357,140.283,454.357z"/>
		<path d="M268.283,454.357h-96c-4.142,0-7.5,3.357-7.5,7.5s3.358,7.5,7.5,7.5h96c4.143,0,7.5-3.357,7.5-7.5
			S272.426,454.357,268.283,454.357z"/>
	</g>
</g>
<g>
</g>
<g>
</g>
<g>
</g>
<g>
</g>
<g>
</g>
<g>
</g>
<g>
</g>
<g>
</g>
<g>
</g>
<g>
</g>
<g>
</g>
<g>
</g>
<g>
</g>
<g>
</g>
<g>
</g>
</svg>
